<svg width="2404" height="1199" xmlns="http://www.w3.org/2000/svg" xmlns:xlink="http://www.w3.org/1999/xlink" xml:space="preserve" overflow="hidden"><g transform="translate(-779 -562)"><rect x="780.5" y="829.5" width="1574" height="930" stroke="#000000" stroke-width="3.4375" stroke-linejoin="round" stroke-miterlimit="10" fill="#FFFFFF"/><text font-family="Segoe UI,Segoe UI_MSFontService,sans-serif" font-style="italic" font-weight="400" font-size="55" transform="matrix(1 0 0 1 1381.79 929)">Resource Group</text><text font-family="Segoe UI,Segoe UI_MSFontService,sans-serif" font-weight="400" font-size="55" transform="matrix(1 0 0 1 1367.49 988)">Fleet Integration</text><rect x="835.5" y="1041.5" width="681" height="662" stroke="#000000" stroke-width="3.4375" stroke-linejoin="round" stroke-miterlimit="10" fill="#FFFFFF"/><text font-family="Segoe UI,Segoe UI_MSFontService,sans-serif" font-weight="400" font-size="55" transform="matrix(1 0 0 1 1038.74 1141)">Event Hubs </text><text font-family="Segoe UI,Segoe UI_MSFontService,sans-serif" font-weight="400" font-size="55" transform="matrix(1 0 0 1 1034.09 1200)">Namespace</text><rect x="896.5" y="1275.5" width="544" height="312" stroke="#000000" stroke-width="3.4375" stroke-linejoin="round" stroke-miterlimit="10" fill="#FFFFFF"/><text font-family="Segoe UI,Segoe UI_MSFontService,sans-serif" font-style="italic" font-weight="400" font-size="55" transform="matrix(1 0 0 1 1046.54 1419)">Event Hub</text><text font-family="Segoe UI,Segoe UI_MSFontService,sans-serif" font-weight="400" font-size="55" transform="matrix(1 0 0 1 1009.12 1477)">Vehicle Event</text><rect x="1612.5" y="1041.5" width="681" height="662" stroke="#000000" stroke-width="3.4375" stroke-linejoin="round" stroke-miterlimit="10" fill="#FFFFFF"/><text font-family="Segoe UI,Segoe UI_MSFontService,sans-serif" font-weight="400" font-size="55" transform="matrix(1 0 0 1 1778.66 1141)">Function Apps</text><rect x="1680.5" y="1275.5" width="544" height="312" stroke="#000000" stroke-width="3.4375" stroke-linejoin="round" stroke-miterlimit="10" fill="#FFFFFF"/><text font-family="Segoe UI,Segoe UI_MSFontService,sans-serif" font-style="italic" font-weight="400" font-size="55" transform="matrix(1 0 0 1 1849.69 1389)">Function</text><text font-family="Segoe UI,Segoe UI_MSFontService,sans-serif" font-weight="400" font-size="55" transform="matrix(1 0 0 1 1793.16 1448)">Vehicle Event </text><text font-family="Segoe UI,Segoe UI_MSFontService,sans-serif" font-weight="400" font-size="55" transform="matrix(1 0 0 1 1856.57 1508)">Handler</text><rect x="2598.5" y="1106.5" width="583" height="653" stroke="#000000" stroke-width="3.4375" stroke-linejoin="round" stroke-miterlimit="10" fill="#FFFFFF"/><text font-family="Segoe UI,Segoe UI_MSFontService,sans-serif" font-style="italic" font-weight="400" font-size="55" transform="matrix(1 0 0 1 2771.46 1206)">Dataverse</text><path d="M1440.5 1429.78 1560.45 1429.78C1561.4 1429.78 1562.17 1430.55 1562.17 1431.5L1562.17 1431.5 1560.45 1429.78 1657.48 1429.78 1657.48 1433.22 1560.45 1433.22C1559.5 1433.22 1558.73 1432.45 1558.73 1431.5L1558.73 1431.5 1560.45 1433.22 1440.5 1433.22ZM1652.89 1417.75 1680.39 1431.5 1652.89 1445.25Z"/><rect x="1337" y="1494" width="467" height="146" fill="#FFFFFF"/><text fill="#00B050" font-family="Segoe UI,Segoe UI_MSFontService,sans-serif" font-style="italic" font-weight="400" font-size="37" transform="matrix(1 0 0 1 1403.04 1545)">Shared access policy</text><text fill="#00B050" font-family="Segoe UI,Segoe UI_MSFontService,sans-serif" font-weight="400" font-size="37" transform="matrix(1 0 0 1 1403.04 1612)">statusandevents</text><path d="M2224.5 1429.78 2411.43 1429.78C2412.38 1429.78 2413.15 1430.55 2413.15 1431.5L2413.15 1431.5 2411.43 1429.78 2575.45 1429.78 2575.45 1433.22 2411.43 1433.22C2410.48 1433.22 2409.72 1432.45 2409.72 1431.5L2409.72 1431.5 2411.43 1433.22 2224.5 1433.22ZM2570.87 1417.75 2598.37 1431.5 2570.87 1445.25Z"/><rect x="2598.5" y="563.5" width="583" height="400" stroke="#000000" stroke-width="3.4375" stroke-linejoin="round" stroke-miterlimit="10" fill="#FFFFFF"/><text font-family="Segoe UI,Segoe UI_MSFontService,sans-serif" font-style="italic" font-weight="400" font-size="55" transform="matrix(1 0 0 1 2827.29 663)">Entra</text><rect x="2644.5" y="740.5" width="491" height="125" stroke="#000000" stroke-width="3.4375" stroke-linejoin="round" stroke-miterlimit="10" fill="#FFFFFF"/><text font-family="Segoe UI,Segoe UI_MSFontService,sans-serif" font-style="italic" font-weight="400" font-size="55" transform="matrix(1 0 0 1 2725.7 820)">Application id</text><path d="M2892.22 865.5 2892.22 1084.23 2888.78 1084.23 2888.78 865.5ZM2904.25 1079.65 2890.5 1107.15 2876.75 1079.65Z"/><rect x="2714" y="898" width="467" height="146" fill="#FFFFFF"/><text fill="#00B050" font-family="Segoe UI,Segoe UI_MSFontService,sans-serif" font-style="italic" font-weight="400" font-size="37" transform="matrix(1 0 0 1 2780.02 982)">write access</text><path d="M0-1.71875 10.3125-1.71875 10.3125 1.71875 0 1.71875ZM13.75-1.71875 24.0625-1.71875 24.0625 1.71875 13.75 1.71875ZM27.5-1.71875 37.8125-1.71875 37.8125 1.71875 27.5 1.71875ZM41.25-1.71875 51.5625-1.71875 51.5625 1.71875 41.25 1.71875ZM55-1.71875 65.3125-1.71875 65.3125 1.71875 55 1.71875ZM68.75-1.71875 79.0625-1.71875 79.0625 1.71875 68.75 1.71875ZM82.5-1.71875 92.8125-1.71875 92.8125 1.71875 82.5 1.71875ZM96.25-1.71875 106.562-1.71875 106.562 1.71875 96.25 1.71875ZM110-1.71875 120.312-1.71875 120.312 1.71875 110 1.71875ZM123.75-1.71875 134.062-1.71875 134.062 1.71875 123.75 1.71875ZM137.5-1.71875 147.812-1.71875 147.812 1.71875 137.5 1.71875ZM151.25-1.71875 161.562-1.71875 161.562 1.71875 151.25 1.71875ZM165-1.71875 175.312-1.71875 175.312 1.71875 165 1.71875ZM178.75-1.71875 189.062-1.71875 189.062 1.71875 178.75 1.71875ZM192.5-1.71875 202.812-1.71875 202.812 1.71875 192.5 1.71875ZM206.25-1.71875 216.562-1.71875 216.562 1.71875 206.25 1.71875ZM220-1.71875 230.312-1.71875 230.312 1.71875 220 1.71875ZM233.75-1.71875 244.062-1.71875 244.062 1.71875 233.75 1.71875ZM247.5-1.71875 257.812-1.71875 257.812 1.71875 247.5 1.71875ZM261.25-1.71875 271.562-1.71875 271.562 1.71875 261.25 1.71875ZM275-1.71875 285.312-1.71875 285.312 1.71875 275 1.71875ZM288.75-1.71875 299.062-1.71875 299.062 1.71875 288.75 1.71875ZM302.5-1.71875 312.812-1.71875 312.812 1.71875 302.5 1.71875ZM316.25-1.71875 326.562-1.71875 326.562 1.71875 316.25 1.71875ZM330-1.71875 340.312-1.71875 340.312 1.71875 330 1.71875ZM343.75-1.71875 354.062-1.71875 354.062 1.71875 343.75 1.71875ZM357.5-1.71875 367.812-1.71875 367.812 1.71875 357.5 1.71875ZM371.25-1.71875 381.562-1.71875 381.562 1.71875 371.25 1.71875ZM385-1.71875 395.312-1.71875 395.312 1.71875 385 1.71875ZM398.75-1.71875 409.062-1.71875 409.062 1.71875 398.75 1.71875ZM412.5-1.71875 422.812-1.71875 422.812 1.71875 412.5 1.71875ZM426.25-1.71875 436.562-1.71875 436.562 1.71875 426.25 1.71875ZM440-1.71875 450.312-1.71875 450.312 1.71875 440 1.71875ZM453.75-1.71875 464.062-1.71875 464.062 1.71875 453.75 1.71875ZM467.5-1.71875 477.812-1.71875 477.812 1.71875 467.5 1.71875ZM481.25-1.71875 491.562-1.71875 491.562 1.71875 481.25 1.71875ZM495-1.71875 505.312-1.71875 505.312 1.71875 495 1.71875ZM508.75-1.71875 519.062-1.71875 519.062 1.71875 508.75 1.71875ZM522.5-1.71875 532.812-1.71875 532.812 1.71875 522.5 1.71875ZM536.25-1.71875 546.562-1.71875 546.562 1.71875 536.25 1.71875ZM550-1.71875 560.312-1.71875 560.312 1.71875 550 1.71875ZM563.75-1.71875 574.062-1.71875 574.062 1.71875 563.75 1.71875ZM577.5-1.71875 587.812-1.71875 587.812 1.71875 577.5 1.71875ZM591.25-1.71875 601.562-1.71875 601.562 1.71875 591.25 1.71875ZM605-1.71875 615.312-1.71875 615.312 1.71875 605 1.71875ZM618.75-1.71875 629.062-1.71875 629.062 1.71875 618.75 1.71875ZM632.5-1.71875 642.812-1.71875 642.812 1.71875 632.5 1.71875ZM647.661 0.307841 647.661 10.6203 644.223 10.6203 644.223 0.307841ZM647.661 14.0578 647.661 24.3703 644.223 24.3703 644.223 14.0578ZM647.661 27.8078 647.661 38.1203 644.223 38.1203 644.223 27.8078ZM647.661 41.5578 647.661 51.8703 644.223 51.8703 644.223 41.5578ZM647.661 55.3078 647.661 65.6203 644.223 65.6203 644.223 55.3078ZM647.661 69.0578 647.661 79.3703 644.223 79.3703 644.223 69.0578ZM647.661 82.8078 647.661 93.1203 644.223 93.1203 644.223 82.8078ZM647.661 96.5578 647.661 106.87 644.223 106.87 644.223 96.5578ZM647.661 110.308 647.661 120.62 644.223 120.62 644.223 110.308ZM647.661 124.058 647.661 134.37 644.223 134.37 644.223 124.058ZM647.661 137.808 647.661 148.12 644.223 148.12 644.223 137.808ZM647.661 151.558 647.661 161.87 644.223 161.87 644.223 151.558ZM647.661 165.308 647.661 175.62 644.223 175.62 644.223 165.308ZM647.661 179.058 647.661 189.37 644.223 189.37 644.223 179.058ZM647.661 192.808 647.661 203.12 644.223 203.12 644.223 192.808ZM647.661 206.558 647.661 216.87 644.223 216.87 644.223 206.558ZM647.661 220.308 647.661 230.62 644.223 230.62 644.223 220.308ZM647.661 234.058 647.661 244.37 644.223 244.37 644.223 234.058ZM647.661 247.808 647.661 255.583 644.223 255.583 644.223 247.808ZM659.692 251 645.942 278.5 632.192 251Z" transform="matrix(-1 1.22465e-16 1.22465e-16 1 2598.44 763.5)"/><rect x="2067" y="684" width="467" height="145" fill="#FFFFFF"/><text fill="#00B050" font-family="Segoe UI,Segoe UI_MSFontService,sans-serif" font-style="italic" font-weight="400" font-size="37" transform="matrix(1 0 0 1 2132.62 768)">Application id + url</text></g></svg>