<svg width="2607" height="2005" xmlns="http://www.w3.org/2000/svg" xmlns:xlink="http://www.w3.org/1999/xlink" xml:space="preserve" overflow="hidden"><g transform="translate(-867 -368)"><rect x="2695.5" y="369.5" width="777" height="1493" stroke="#000000" stroke-width="3.4375" stroke-linejoin="round" stroke-miterlimit="10" fill="#FFFFFF"/><text font-family="Segoe UI,Segoe UI_MSFontService,sans-serif" font-style="italic" font-weight="400" font-size="55" transform="matrix(1 0 0 1 2898 469)">Resource Group</text><text font-family="Segoe UI,Segoe UI_MSFontService,sans-serif" font-weight="400" font-size="55" transform="matrix(1 0 0 1 2823.84 528)">Telemetry Integration</text><rect x="2750.5" y="642.5" width="681" height="1126" stroke="#000000" stroke-width="3.4375" stroke-linejoin="round" stroke-miterlimit="10" fill="#FFFFFF"/><text font-family="Segoe UI,Segoe UI_MSFontService,sans-serif" font-weight="400" font-size="55" transform="matrix(1 0 0 1 2953.67 741)">Event Hubs </text><text font-family="Segoe UI,Segoe UI_MSFontService,sans-serif" font-weight="400" font-size="55" transform="matrix(1 0 0 1 2949.02 800)">Namespace</text><rect x="868.5" y="369.5" width="1629" height="2002" stroke="#000000" stroke-width="3.4375" stroke-linejoin="round" stroke-miterlimit="10" fill="#FFFFFF"/><text font-family="Segoe UI,Segoe UI_MSFontService,sans-serif" font-style="italic" font-weight="400" font-size="55" transform="matrix(1 0 0 1 1497.24 469)">Resource Group</text><text font-family="Segoe UI,Segoe UI_MSFontService,sans-serif" font-weight="400" font-size="55" transform="matrix(1 0 0 1 1453.59 528)">Telemetry Platform</text><rect x="1762.5" y="642.5" width="681" height="1126" stroke="#000000" stroke-width="3.4375" stroke-linejoin="round" stroke-miterlimit="10" fill="#FFFFFF"/><text font-family="Segoe UI,Segoe UI_MSFontService,sans-serif" font-weight="400" font-size="55" transform="matrix(1 0 0 1 1928.91 741)">Function Apps</text><rect x="1830.5" y="859.5" width="545" height="313" stroke="#000000" stroke-width="3.4375" stroke-linejoin="round" stroke-miterlimit="10" fill="#FFFFFF"/><text font-family="Segoe UI,Segoe UI_MSFontService,sans-serif" font-style="italic" font-weight="400" font-size="55" transform="matrix(1 0 0 1 1999.94 973)">Function</text><text font-family="Segoe UI,Segoe UI_MSFontService,sans-serif" font-weight="400" font-size="55" transform="matrix(1 0 0 1 1935.82 1032)">Vehicle Status </text><text font-family="Segoe UI,Segoe UI_MSFontService,sans-serif" font-weight="400" font-size="55" transform="matrix(1 0 0 1 2006.82 1092)">Handler</text><rect x="1830.5" y="1293.5" width="545" height="313" stroke="#000000" stroke-width="3.4375" stroke-linejoin="round" stroke-miterlimit="10" fill="#FFFFFF"/><text font-family="Segoe UI,Segoe UI_MSFontService,sans-serif" font-style="italic" font-weight="400" font-size="55" transform="matrix(1 0 0 1 1999.95 1408)">Function</text><text font-family="Segoe UI,Segoe UI_MSFontService,sans-serif" font-weight="400" font-size="55" transform="matrix(1 0 0 1 1943.42 1466)">Vehicle Event </text><text font-family="Segoe UI,Segoe UI_MSFontService,sans-serif" font-weight="400" font-size="55" transform="matrix(1 0 0 1 1903.7 1527)">Handler Handler</text><rect x="918.5" y="1049.5" width="544" height="312" stroke="#000000" stroke-width="3.4375" stroke-linejoin="round" stroke-miterlimit="10" fill="#FFFFFF"/><text font-family="Segoe UI,Segoe UI_MSFontService,sans-serif" font-style="italic" font-weight="400" font-size="55" transform="matrix(1 0 0 1 999.786 1163)">Event Grid Topic</text><text font-family="Segoe UI,Segoe UI_MSFontService,sans-serif" font-weight="400" font-size="55" transform="matrix(1 0 0 1 1072.32 1222)">Telemetry </text><text font-family="Segoe UI,Segoe UI_MSFontService,sans-serif" font-weight="400" font-size="55" transform="matrix(1 0 0 1 1077.45 1282)">Ingestion</text><rect x="2818.5" y="845.5" width="544" height="313" stroke="#000000" stroke-width="3.4375" stroke-linejoin="round" stroke-miterlimit="10" fill="#FFFFFF"/><text font-family="Segoe UI,Segoe UI_MSFontService,sans-serif" font-style="italic" font-weight="400" font-size="55" transform="matrix(1 0 0 1 2967.9 959)">Event Hub</text><text font-family="Segoe UI,Segoe UI_MSFontService,sans-serif" font-weight="400" font-size="55" transform="matrix(1 0 0 1 2922.9 1018)">Vehicle</text><text font-family="Segoe UI,Segoe UI_MSFontService,sans-serif" font-weight="400" font-size="55" transform="matrix(1 0 0 1 3108.5 1018)">Statu</text><text font-family="Segoe UI,Segoe UI_MSFontService,sans-serif" font-weight="400" font-size="55" transform="matrix(1 0 0 1 3232.77 1018)">s</text><rect x="2818.5" y="1279.5" width="544" height="313" stroke="#000000" stroke-width="3.4375" stroke-linejoin="round" stroke-miterlimit="10" fill="#FFFFFF"/><text font-family="Segoe UI,Segoe UI_MSFontService,sans-serif" font-style="italic" font-weight="400" font-size="55" transform="matrix(1 0 0 1 2967.9 1423)">Event Hub</text><text font-family="Segoe UI,Segoe UI_MSFontService,sans-serif" font-weight="400" font-size="55" transform="matrix(1 0 0 1 2930.48 1482)">Vehicle Event</text><path d="M0-1.71875 184.016-1.71875C184.965-1.71875 185.735-0.949239 185.735 0L185.735 70.3361 184.016 68.6174 345.115 68.6174 345.115 72.0549 184.016 72.0549C183.067 72.0549 182.297 71.2854 182.297 70.3361L182.297 0 184.016 1.71875 0 1.71875ZM340.532 56.5861 368.032 70.3361 340.532 84.0861Z" transform="matrix(1 0 0 -1 1462.5 1085.84)"/><rect x="1372" y="833" width="431" height="146" fill="#FFFFFF"/><text fill="#00B050" font-family="Segoe UI,Segoe UI_MSFontService,sans-serif" font-style="italic" font-weight="400" font-size="37" transform="matrix(1 0 0 1 1438.28 884)">event subscription</text><text fill="#00B050" font-family="Segoe UI,Segoe UI_MSFontService,sans-serif" font-weight="400" font-size="37" transform="matrix(1 0 0 1 1438.28 951)">vehiclestatus</text><path d="M1462.5 1291.78 1646.52 1291.78C1647.47 1291.78 1648.23 1292.55 1648.23 1293.5L1648.23 1449.72 1646.52 1448 1807.61 1448 1807.61 1451.44 1646.52 1451.44C1645.57 1451.44 1644.8 1450.67 1644.8 1449.72L1644.8 1293.5 1646.52 1295.22 1462.5 1295.22ZM1803.03 1435.97 1830.53 1449.72 1803.03 1463.47Z"/><rect x="1383" y="1493" width="431" height="146" fill="#FFFFFF"/><text fill="#00B050" font-family="Segoe UI,Segoe UI_MSFontService,sans-serif" font-style="italic" font-weight="400" font-size="37" transform="matrix(1 0 0 1 1449.39 1544)">event subscription</text><text fill="#00B050" font-family="Segoe UI,Segoe UI_MSFontService,sans-serif" font-weight="400" font-size="37" transform="matrix(1 0 0 1 1449.39 1611)">vehicleevent</text><rect x="1762.5" y="1862.5" width="681" height="462" stroke="#000000" stroke-width="3.4375" stroke-linejoin="round" stroke-miterlimit="10" fill="#FFFFFF"/><text font-family="Segoe UI,Segoe UI_MSFontService,sans-serif" font-weight="400" font-size="55" transform="matrix(1 0 0 1 1966.01 1962)">Event Hubs </text><text font-family="Segoe UI,Segoe UI_MSFontService,sans-serif" font-weight="400" font-size="55" transform="matrix(1 0 0 1 1961.36 2021)">Namespace</text><rect x="1830.5" y="2073.5" width="545" height="191" stroke="#000000" stroke-width="3.4375" stroke-linejoin="round" stroke-miterlimit="10" fill="#FFFFFF"/><text font-family="Segoe UI,Segoe UI_MSFontService,sans-serif" font-style="italic" font-weight="400" font-size="55" transform="matrix(1 0 0 1 1980.84 2156)">Event Hub</text><text font-family="Segoe UI,Segoe UI_MSFontService,sans-serif" font-weight="400" font-size="55" transform="matrix(1 0 0 1 1978.11 2215)">deadletter</text><path d="M2105.22 1606.5 2105.22 1734.46C2105.22 1735.41 2104.45 1736.18 2103.5 1736.18L2103.5 1736.18 2105.22 1734.46 2105.22 1839.51 2101.78 1839.51 2101.78 1734.46C2101.78 1733.51 2102.55 1732.74 2103.5 1732.74L2103.5 1732.74 2101.78 1734.46 2101.78 1606.5ZM2117.25 1834.92 2103.5 1862.42 2089.75 1834.92Z"/><rect x="1895" y="1639" width="467" height="145" fill="#FFFFFF"/><text fill="#00B050" font-family="Segoe UI,Segoe UI_MSFontService,sans-serif" font-style="italic" font-weight="400" font-size="37" transform="matrix(1 0 0 1 1960.56 1689)">Shared access policy</text><text fill="#00B050" font-family="Segoe UI,Segoe UI_MSFontService,sans-serif" font-weight="400" font-size="37" transform="matrix(1 0 0 1 1960.56 1756)">deadletter</text><path d="M2443.5 1203.78 2596.8 1203.78C2597.75 1203.78 2598.52 1204.55 2598.52 1205.5L2598.52 1205.5 2596.8 1203.78 2727.18 1203.78 2727.18 1207.22 2596.8 1207.22C2595.85 1207.22 2595.08 1206.45 2595.08 1205.5L2595.08 1205.5 2596.8 1207.22 2443.5 1207.22ZM2722.6 1191.75 2750.1 1205.5 2722.6 1219.25Z"/><rect x="2356" y="1236" width="468" height="146" fill="#FFFFFF"/><text fill="#00B050" font-family="Segoe UI,Segoe UI_MSFontService,sans-serif" font-style="italic" font-weight="400" font-size="37" transform="matrix(1 0 0 1 2422.44 1287)">Shared access policy</text><text fill="#00B050" font-family="Segoe UI,Segoe UI_MSFontService,sans-serif" font-weight="400" font-size="37" transform="matrix(1 0 0 1 2422.44 1354)">statusandevent</text><text fill="#00B050" font-family="Segoe UI,Segoe UI_MSFontService,sans-serif" font-weight="400" font-size="37" transform="matrix(1 0 0 1 2668.23 1354)">s</text></g></svg>